<?xml version="1.0" encoding="UTF-8"?>
<svg id="Layer_2" data-name="Layer 2" xmlns="http://www.w3.org/2000/svg" viewBox="0 0 899.73 360.84">
  <defs>
    <style>
      .cls-1 {
        fill: #6e6f72;
      }

      .cls-2 {
        fill: #f9b01b;
      }

      .cls-3 {
        fill: #279b48;
      }

      .cls-4 {
        fill: #e73527;
      }

      .cls-5 {
        fill: #4870b7;
      }
    </style>
  </defs>
  <g id="Layer_1-2" data-name="Layer 1">
    <g>
      <path class="cls-5" d="M561.2,251.71l26.12-11.04c1.05-.45,1.89-.03,2.35.92,4.79,9.78,12.42,18.23,22.89,22.1,9.93,3.67,20.89,3.19,30.66-.57,9.51-3.66,16.09-11.2,19.38-20.66,3.47-9.97,3.38-19.31,2.82-30-.03-.56-1.68.11-1.96.44-3.37,4-7.81,7.28-12.56,9.74-13.06,6.74-27.75,7.79-41.84,3.84-7.14-2-13.35-4.58-19.66-8.63-16.42-10.54-28.15-27.07-32.4-46.12-7.27-32.63,7.8-66.01,37.1-81.93,22.23-12.08,51.87-11.55,69.7,7.55,3.22,3.45,1.19-8.76,1.83-9.74.14-.61.55-1.49,1.37-1.48l29.02.11-.23,140.03c-.02,11.28-3.16,22.14-7.57,32.22-5.8,13.27-16.18,23.52-29.12,29.61-16.47,7.75-38.51,9-55.63,3.2-11.76-3.98-21.86-10.74-29.96-20.06-4.99-5.78-9.15-11.72-12.28-19.53ZM656.61,187.13c6.8-7.68,10.3-17.11,11.01-27.24.88-12.71-1.78-24.84-9.57-34.86-10.53-13.54-28.17-18.25-44.25-11.79-23.43,9.4-32.46,38.45-22.61,61.52,2.35,5.5,5.63,10.3,9.98,14.31,16.35,15.05,40.79,14.6,55.44-1.94Z"/>
      <path class="cls-2" d="M542.2,155.11c0,40.97-33.22,74.19-74.2,74.19s-74.2-33.21-74.2-74.19,33.22-74.19,74.2-74.19,74.2,33.21,74.2,74.19ZM501.24,182.26c10.18-14.41,11.01-34.02,2.91-49.6-8.77-16.85-27.69-25.46-46.04-20.83-16.9,4.26-28.39,18.44-31,35.34-2.97,19.28,4.87,38.74,22.26,47.89,18.38,9.67,40.16,3.8,51.88-12.79Z"/>
      <g>
        <path class="cls-5" d="M118.02,135.19c-1.33,0-1.96-.63-1.96-1.6l.03-27.65c0-1.35.87-1.61,2.1-1.61l102.34.03c.94,1.17,1.18,2.46,1.3,3.81l.79,9.41c1.18,13.96-1.59,32.09-6.18,45.37-5.02,14.49-13.19,26.93-24.34,37.38-11.47,10.75-24.69,18.81-39.83,23.34-9.05,2.71-17.94,4.44-27.34,4.86-8.9.4-17.26.41-26-.95-34.71-5.42-65.19-25.7-83.12-55.94C-9.61,128.77-3.82,75.98,29.16,39.02,57.67,7.08,100.72-6.55,142.54,2.99c18.67,4.26,35.7,13.69,49.83,26.7.61.56.87,1,.92,1.63s-.48.99-.98,1.52l-7.81,8.15c-4.02,4.19-7.9,8.21-12.31,12.23-13.63-12.87-30.46-20.33-48.68-21.83-26.66-2.19-52.08,7.75-69.53,27.99-21.31,24.72-26.16,59.95-12.94,89.69,11.53,25.94,35.59,44.16,63.87,47.76,8.82,1.12,14.82,1.01,23.62.05,15.68-1.71,29.99-7.97,41.67-18.54,4.85-4.38,9-9.12,12.13-14.91,4.66-8.61,7.52-17.9,8.48-28.16l-72.79-.08Z"/>
        <path class="cls-4" d="M381.07,155.11c0,40.86-33.13,73.99-74,73.99s-74-33.13-74-73.99,33.13-73.99,74-73.99,74,33.13,74,73.99ZM323.24,196.51c9.51-4.22,16.32-11.21,20.84-20.27,4.2-8.43,5.26-17.84,4.27-27.26-1.11-10.61-5.7-20.16-13.38-27.45-17.46-16.6-45.4-14.34-60.17,4.68-14.04,18.08-12.64,46.76,4.72,62.85,11.79,10.92,28.83,14.05,43.71,7.45Z"/>
        <g>
          <path class="cls-4" d="M872.39,180.85c.93-1.31,2.37-.34,3.28.26l22.15,14.75c.56,1.09-1.02,2.48-1.62,3.25-7.2,9.28-15.79,16.9-26.46,22.11-20.58,10.05-44.84,10.04-65.44.08-16.77-8.11-28.82-22.43-35.03-39.92-4.52-12.73-5.26-26.09-3.38-39.57,1.36-9.73,4.57-18.72,9.39-27.13,11.95-20.84,33.86-33.06,57.86-33.07,15.19,0,29.34,4.65,40.9,14.62,8.96,7.72,16.16,17.18,20.69,28.18l4.99,12.12-98.54,40.9c7.38,14.96,20.11,22.93,36.83,22.51,14.6-.37,25.97-7.21,34.37-19.11ZM861.05,123.5c-3.48-6.16-9.32-10.17-15.92-12.07-7.77-2.55-15.48-2.12-23.14.83-16.38,6.3-27.33,22.54-25.93,40.69l64.78-26.87c1.01-.42.67-1.79.22-2.58Z"/>
          <rect class="cls-3" x="718.07" y="7.64" width="32.34" height="216.5"/>
        </g>
      </g>
      <g>
        <path class="cls-2" d="M535,358.93c-3.6-.58-17.76-8.84-19.24-8.19l-18.77,8.2,2.02-20.24c-.12-2-2.74-3.52-4-4.96-2.11-3.32-8.85-8.21-9.38-11.32l19.93-4.11,9.66-17.12c.34-.61,1.24-.58,1.56,0l9.82,17.21,19.95,4.09c-1.35,3.1-3.77,4.66-5.7,6.83s-3.87,4.45-6.09,6.52c-.96.9-1.97,1.97-1.83,3.3l2.09,19.79Z"/>
        <path class="cls-2" d="M734.05,350.47l-17.62,8.05c-.41.19-.86.18-1.09.1-.2-.07-.52-.48-.46-.97l2.32-19.37-13.35-14.6c-.29-.31-.04-.95.05-1.15s.43-.35.86-.43l18.97-3.8,8.9-16.3c.33-.61.57-1.1,1.12-1.19.84-.15,1.21.45,1.61,1.19l8.89,16.3,18.59,3.74c.55.11,1.07.2,1.24.51.24.46.19,1-.21,1.43l-13.2,14.34,2.4,20.66-19.03-8.47Z"/>
        <path class="cls-2" d="M607.73,358.85l-19.13-8.35-17.48,8c-.4.18-.87.14-1.1.1-.21-.03-.54-.48-.48-.96l2.31-19.36-13.96-15.67,20.49-4.34,9.12-16.67c.22-.4.35-.65.54-.74.28-.13,1.2-.23,1.46.23l9.42,17.18,18.59,3.74c.54.11,1.05.18,1.23.5.34.59.08,1.18-.39,1.69l-12.94,14.04,2.33,20.6Z"/>
        <path class="cls-2" d="M825.65,358.93l-18.97-8.46-19.02,8.49,2.17-20.75-13.17-14.38c-.27-.29-.21-.68-.24-.9-.06-.39.27-.69.84-.8l18.95-3.85,9.45-16.83c.2-.36.43-.55.61-.63.38-.18.92-.12,1.19.36l9.61,17.14,18.6,3.72c.63.13,1.15.39,1.22.92.06.46-.23.9-.65,1.35l-12.77,13.84,2.19,20.78Z"/>
        <path class="cls-2" d="M680.34,358.93l-19.05-8.49-17.4,8.03c-.37.17-.7.21-.92.16-.28-.06-.79-.45-.72-1.01l2.27-19.42-13.22-14.35c-.26-.29-.17-.72-.21-.93-.07-.37.26-.7.83-.82l18.98-3.82,9.46-16.84c.2-.35.45-.53.62-.61.36-.18.87-.14,1.14.33l9.65,17.11,19.68,4.08c.5.61-.48,1.91-.96,2.42l-12.31,13.23,2.17,20.91Z"/>
      </g>
      <g>
        <path class="cls-1" d="M107.65,358.64c-5.61.91-10.87.07-16.28.44-1.49.1-2.26-.79-2.92-1.97l-13.73-24.46c-4.1-.2-7.79-.22-11.96.01l-.32,26.33-15.62-.15-.05-73.48c0-1.12.73-1.73,1.83-1.73l35.01.13c4.41.02,8.59,1.33,12.34,3.4,10.89,5.99,14.14,20.3,9.68,30.75-2.59,6.09-7.54,10.65-13.98,12.33-.54,1.11.28,2.49,1.03,3.4l14.98,24.98ZM82.07,317.94c5.96-.57,9.28-5.37,8.96-10.57s-4.43-9.08-10.11-9.26c-5.93-.18-11.77-.13-18.09.01l-.05,20c6.58-.12,12.85.43,19.29-.18Z"/>
        <polygon class="cls-1" points="408.68 304.91 392.21 358.93 377.19 358.94 365.37 322.61 353.61 358.88 338.38 358.89 321.86 304.96 336.47 304.88 346.92 340.31 358.96 304.91 371.65 304.91 383.73 340.43 394.07 304.89 408.68 304.91"/>
        <path class="cls-1" d="M142,349.43c10.97.89,15.5-6.95,17.23-4.25l5.14,8.03c-2.64,2.79-5.78,4.23-9.2,5.4-7.47,2.55-15.18,3.03-22.74.81-14.88-4.37-21.78-19.51-18.9-34,1.83-9.21,7.92-17.13,16.83-20.5,8.27-3.13,17.24-2.78,24.87,1.67,7.19,4.2,11.36,11.54,12.71,19.63.46,2.76.38,5.33.63,8.11.1,1.12-.75,1.83-1.87,1.83l-38.56.07c.5,7.44,6.61,12.61,13.86,13.2ZM154.51,326.36c-.31-7.26-5.88-11.81-12.57-12.11-7.27-.32-13.56,4.63-13.97,12.13l26.55-.02Z"/>
        <path class="cls-1" d="M292.39,349.49c5.67,0,10.24-2.35,14.78-5.26,2.22,2.84,4.28,5.54,5.78,8.68.16.96-1.58,2.19-2.44,2.7-13.81,8.16-34.39,7.31-43.63-6.66-8.02-12.12-6.55-30.22,5.08-39.71,10.98-8.97,28.49-8.6,37.91,1.99,5.45,6.12,7.65,13.98,7.61,22.14,0,.69.15,1.43-.21,2.06-.25.43-.84.73-1.83.73l-38.5.02c.73,7.88,7.4,13.32,15.45,13.31ZM303.5,326.22c-.69-7.48-6.2-11.81-12.85-11.92-7.05-.39-13.33,4.57-13.81,12.08l26.65-.16Z"/>
        <path class="cls-1" d="M447.69,358.87c-11.33,3.83-27.53,1.82-36.29-6.52l5.96-9.78c5.15,3.53,10.53,6.45,16.79,7.14,4.99.55,12.25-.57,11.69-6.31-.18-1.87-1.78-3.38-3.93-3.9l-15.95-3.86c-4.61-1.12-8.75-3.5-11.03-7.79-4.36-8.2-.89-18.03,7.5-22.12,10.56-5.14,26.44-3.17,35.21,4.7l-5.51,9.39c-5.08-3.94-11.08-6.47-17.62-6.05-3.89.25-8.22,2.9-7.51,6.03,1.84,8.11,33.05,1.49,32.56,23.82-.16,7.17-4.75,12.85-11.86,15.25Z"/>
        <polygon class="cls-1" points="215.18 304.98 230.65 304.9 208.72 358.89 193.24 358.86 171.43 305.02 186.56 304.87 200.99 341.92 215.18 304.98"/>
        <rect class="cls-1" x="237.31" y="304.81" width="14.38" height="54.21"/>
        <circle class="cls-1" cx="244.04" cy="289.62" r="8.52"/>
      </g>
    </g>
  </g>
</svg>