<?xml version="1.0" encoding="UTF-8"?>
<svg id="Layer_2" data-name="Layer 2" xmlns="http://www.w3.org/2000/svg" viewBox="0 0 308.58 484.24">
  <defs>
    <style>
      .cls-1 {
        fill: #1c75bc;
      }
    </style>
  </defs>
  <g id="Layer_1-2" data-name="Layer 1">
    <path class="cls-1" d="M298.85,122.47c-28.23-35.35,1.32-66.21-41.42-78.94-48.51-14.39-39.09-55.73-82.85-40.02-44.86,16.09-64-21.52-89.17,15.24-9.04,13.2-21.65,23.77-37.01,28.48-43.84,13.54-12.31,45.37-40.7,83.1-10.95,14.56-9.93,30.64,1.27,44.82,29.58,37.39-.38,68.21,42.66,80.43,15.87,4.5,29.8,13.96,39.22,27.33,24.96,35.61,47.32-3.06,89.34,11.59,42.99,14.98,36.5-29.5,80.94-43.12,42.19-12.95,12.35-46.26,39.01-81.28,11.93-15.66,10.99-32.26-1.27-47.62ZM154.33,256.59c-59.17,0-107.17-47.96-107.17-107.13s48-107.13,107.17-107.13,107.17,47.96,107.17,107.13-48,107.13-107.17,107.13Z"/>
    <path class="cls-1" d="M118.64,484.24c-10.41-10.34-18.96-21.05-28.63-32.82l-41.53,16.59,41.14-165.17c37.96,24.07,52.89-7.22,84.36,4.02,22.32,7.98,42.02,3.29,57.53-13.9l28.54,115.67-41.44-16.16-28.14,33.69-28.88-109.84-42.95,167.91Z"/>
    <path class="cls-1" d="M154.33,56.3c-51.44,0-93.16,41.72-93.16,93.12s41.72,93.16,93.16,93.16,93.16-41.72,93.16-93.16-41.72-93.12-93.16-93.12ZM189.44,203.67l-35.02-21.77-34.72,21.65,9.21-40.07-31.24-26.48,40.7-2.97,16.17-37.86,15.45,37.99,42.95,2.46-33.62,26.65,10.1,40.41Z"/>
  </g>
</svg>