<?xml version="1.0" encoding="UTF-8"?><svg id="a" xmlns="http://www.w3.org/2000/svg" viewBox="0 0 669.41 815.15"><defs><style>.b{fill:#fe8987;}.b,.c,.d{stroke-width:0px;}.c{fill:#fefdfd;}.d{fill:#d23024;}</style></defs><path class="d" d="M134.45,670.88c-14.13-13.57-26.69-27.06-38.81-40.97-25.22-28.94-43.49-62.15-58.52-97.16C11.71,473.51-.99,411.57.06,347.03c1.35-82.85,24.81-158.6,77.73-223.04C128.81,61.86,192.08,18.2,273.39,4.68c80.97-13.47,156.3,2.33,225.56,45.09,79.46,49.06,131.58,118.97,151.97,210.81,17.75,79.97,4.34,155.63-35.51,226.63-39.28,69.98-96.36,121.73-166.73,159.35-30.85,16.5-62.3,31.67-95.59,42.75-50.21,16.71-101.26,18.23-152.95,8.7-8.18-1.51-16.32-3.24-24.45-4.99-2.84-.61-4.53-1.03-4.12,3.2,1,10.12-2.95,12.68-12.46,8.57-7.09-3.06-13.21-7.72-19.47-12.13-1.04-.73-2.28-1.94-2.42-3.05-.6-4.96-4.02-4.69-7.75-5.17-33.85-4.38-59.47,9.83-80.31,35.08-12.03,14.57-21.72,30.69-31.07,47.04-.58,1.01-1.08,2.06-1.67,3.07-.44.76-1.17,1.44-2.01.93-.86-.52-.35-1.33-.03-2.16,7.49-19.65,15.96-38.77,28.9-55.6,21.48-27.93,49.96-41.56,85.01-41.92,1.66-.02,3.33,0,6.14,0ZM332.45,38.77c-14.21.26-27.65,1.03-40.91,3.54-24.52,4.64-46.82,14.94-68.15,27.47-18.3,10.75-35.36,23.09-48.94,39.75-19.43,23.83-15.77,49.92,9.58,67.39,19.21,13.24,41.04,14.74,63.18,13.48,24.46-1.39,48.38-6.36,71.79-13.66,31.6-9.85,61.9-22.54,89.17-41.65,11.1-7.78,21.38-16.51,28.68-28.14,6.9-11,8.5-22.39.5-33.61-4.62-6.47-10.96-11.08-17.96-14.81-27.42-14.6-57.08-19.21-86.94-19.77ZM63.22,378.1c.57,34.9,1.07,66.72,2.38,98.52.12,2.99,1.05,4.83,3.58,6.46,8.93,5.75,18.66,8.64,29.23,8.92,6.61.17,6.72.18,6.98-6.51.81-20.81,1.6-41.61,2.2-62.43.09-3.16.88-4.51,4.2-4.36,4.82.21,9.72-.43,14.47.18,8.72,1.12,13.79-2.89,18.26-9.94,15.28-24.09,22.76-50.54,24.93-78.68,1.08-14.02-1.51-27.01-13.03-36.58-6.55-5.44-13.76-9.94-21.51-13.52-8.08-3.74-16.31-4.16-24.78-1.3-5.81,1.96-5.94,1.84-4.95-4.42.77-4.88,1.48-9.82-2.41-13.67-6.39-6.32-14.14-9.96-23.24-10.03-6.29-.05-8.99,2.22-10.63,8.39-1.63,6.13-2.44,12.4-3.01,18.71-3.06,34.4-2.68,68.89-2.68,100.29ZM529.33,354.71c-2.99-6.99-4.16-13.78-4.72-20.7-.86-10.49.25-20.98-.07-31.47-.39-12.65-4.98-18.99-16.34-22.84-17.38-5.89-26.69.5-27.5,18.86-.56,12.77,1.79,25.19,4.52,37.57,5.79,26.19,14.22,51.64,21.69,77.36,3.45,11.88,3.75,23.53,1.33,35.51-1.81,8.97-3.22,18.02-4.89,27.01-.38,2.02-.18,3.35,1.84,4.51,10.26,5.85,20.94,10.06,32.97,10.4,3.33.09,4.6-.83,5.24-4.08,9.99-50.44,22.1-100.43,32.75-150.73,3.79-17.91,7.85-35.76,10.53-53.89.3-2.03,1.47-4.57-.65-6.1-7.68-5.54-15.2-11.36-24.78-13.58-4.15-.96-6.33-.17-7.69,4.17-2.7,8.59-4.92,17.28-6.91,26.04-3.88,17.03-6.76,34.29-11.95,51.01-1.15,3.72-2.22,7.54-5.38,10.95ZM279.2,356.61c-.05-13.71,1.01-30.54-.6-47.33-1.77-18.47-8.78-27.28-26.47-32.65-6.68-2.03-13.59-3.27-20.36-4.97-9.15-2.29-16.95.46-23.27,6.91-12.9,13.17-18.71,29.59-20.76,47.58-.29,2.53.89,3.91,2.9,5.21,10.22,6.6,23.15,3.61,29.3-6.93,2.01-3.45,3.83-7.01,5.8-10.48,1.16-2.05,2.65-3.87,4.82-4.93,2.7-1.31,4.79-.98,5.79,2.3,1.66,5.46,2.47,10.99,2.15,16.74-.28,4.99-2.42,7.53-7.47,8.78-9.66,2.38-19.53,4.36-28.41,9.2-15.7,8.56-22.66,24.34-18.11,40.81,5.11,18.49,21.69,31.88,38.67,31.09,4.65-.22,9.28-.89,13.92-1.29,1.46-.13,3.03-.48,4.25.78,7.76,8,17.41,8.07,27.41,6.5,7.2-1.13,7.22-1.3,7.99-8.81,1.9-18.42,1.97-36.91,2.46-58.5ZM408.08,363.35c-.21,0-.41,0-.62,0-.07,1.16-.17,2.33-.21,3.49-.42,11.83-.65,23.66,1.54,35.35.98,5.25,2.23,10.69,7.37,13.59,5.82,3.29,12.06,5.66,18.75,6.51,8.78,1.11,14.53-2.7,16.8-11.21,1.61-6.01,1.76-12.18,1.38-18.35-1.31-21.12-1.63-42.25-1.04-63.4.09-3.15.57-5.04,4.52-5.43,14.6-1.43,14.58-1.6,14.97-16.55.37-14.51-1.49-17.18-15.38-20.81-3.43-.9-4.24-2.39-4.03-5.92.79-12.96,1.12-25.95,1.63-38.92.07-1.81.22-3.46-1.56-4.89-10.85-8.8-22.88-12.53-36.81-9.4-2.84.64-3.7,1.75-3.84,4.58-.8,16.63-1.83,33.25-2.75,49.87q-.54,9.75-10.02,12.8c-6.95,2.23-8.86,4.71-9.09,11.88-.42,12.79,1.64,16.17,13.79,20.87,3.58,1.38,4.73,3.31,4.65,6.98-.2,9.65-.07,19.31-.07,28.96ZM306.68,346.45c0,7.55-.14,22.53.05,37.51.11,8.34,1.12,16.63,4.15,24.5,3.94,10.24,11.22,15.24,22.17,15.45,3.68.07,7.29-.46,10.93-.93,3.17-.41,4.6-1.97,5.21-4.99,1.61-7.9,1.75-15.88,1.61-23.87-.31-18.31-.74-36.62-1.15-54.93-.11-5.05.97-9.89,2.09-14.77.93-4.06,2.83-3.13,4.68-1.1,1.55,1.69,2.46,3.95,3.84,5.82,3.53,4.81,8.44,4.24,13.59,3.73,4.57-.45,5.47-3.49,6.47-6.96,2.85-9.84,4.25-19.84,3.45-30.09-1.15-14.73-8.97-23.85-22.66-26.53-4.63-.9-9.28-.57-13.94-.4-2.24.08-3.62,1.01-4.54,3.16-1.76,4.13-3.91,8.09-5.67,12.22-.91,2.13-1.95,2.89-4.13,1.77-7.42-3.83-14.72-2.39-22.22.12-3.1,1.04-4.15,2.12-3.9,5.42,1.18,15.79,1.03,31.61-.06,54.86ZM437.43,511.45c13.16,0,26.33,0,39.49,0,1.97,0,3.9.44,4.03-2.78,1.06-26.83-12.56-45.75-35.88-52.21-8.49-2.35-17.13-2.48-25.79-1.55-21.56,2.3-38.03,16.35-43.12,36.67-2.09,8.34-2.38,16.86-1.28,25.32,2.57,19.91,13.39,33.42,32.51,39.68,13.79,4.51,27.94,4.54,41.89.68,13.95-3.86,24.03-12.46,29.71-26.04,1.41-3.37.6-4.39-2.88-4.55-4.15-.2-8.34-.57-12.4-1.39-2.93-.59-4.12.41-5.28,2.91-2.65,5.7-6.56,10.41-12.14,13.55-21.66,12.17-48.87-1.88-51.54-26.49-.36-3.29.69-3.9,3.7-3.86,13,.14,25.99.06,38.99.06ZM179.5,454.32c-2.83.16-5.66.25-8.48.51-23.4,2.16-40.32,16.61-44.79,38.28-1.32,6.4-1.59,12.89-1.15,19.4,1.51,22.47,13.43,38.26,34.04,44.42,15.67,4.68,31.29,4.08,46.4-2.47,15.4-6.68,24.69-18.3,27.1-35.05,1.05-7.26,1.39-14.55.48-21.91-2.35-19.01-12.67-31.76-30.13-38.99-7.49-3.1-15.4-4.13-23.47-4.19ZM274.4,469.68c-.24-4.33,1.01-9.66-1.1-12.09-2.35-2.72-7.86-.4-11.94-.95-4.09-.55-4.88,1.18-4.86,4.96.15,27.48.07,54.97.1,82.45,0,4.3-1.41,10.06.78,12.53,2.56,2.89,8.48.44,12.88,1.02,4.75.63,6.1-.92,6.08-5.85-.1-18.98-.86-37.99.37-56.95.87-13.51,7.83-21.26,20.97-24.52,5.09-1.26,10.25-1.38,15.38-.56,10.4,1.67,16.25,7.78,17.52,18.2.36,2.97.41,5.98.42,8.97.04,14.99-.07,29.98.07,44.97.05,5.1-2.28,12.07,1.01,14.77,3.12,2.57,9.85.61,14.97.96,3.24.22,3.84-1.08,3.82-4.01-.13-16.49-.03-32.98-.08-49.47-.02-7.66.41-15.34-.75-22.95-1.6-10.49-7.1-18.03-16.91-22.47-14.66-6.63-42.48-7.43-57.22,10.14-.27.32-.78.44-1.51.82ZM84.82,207.69c0,2-.16,4.01.03,5.99,1.36,14.06,13.88,23.31,27.29,19.7,14.81-3.99,35.02-22.17,33.7-45.22-.64-11.21-7.44-20.57-17.82-24.26-10.42-3.7-22.35-1.27-28.96,6.4-9.22,10.7-14.02,23.24-14.23,37.4Z"/><path class="d" d="M323.57,755.89c-1.71-1.43-3.75-2.1-5.95-2.31-7.99-.79-13.52,3.54-18.63,8.86-1.08,1.13-1.55,3.38-4.38,2.88,1.22-2.88,1.66-5.63,1.81-8.4.15-2.83-1.12-4.95-4.01-5.49-2.69-.5-4.87.99-5.33,3.45-1.72,9.03-10.44,9.53-16.15,14.64-.13-1.41-.25-1.88-.19-2.33.84-6.84-1.59-12.24-7.59-15.55-5.86-3.23-10.99-.55-15.57,3.17-3.01,2.44-5.71,5.26-9.11,8.43.43-10.17,2.7-19.2,4.67-28.27.39-1.8.96-3.57.56-5.41-.5-2.28-1.68-3.95-4.22-4.31-2.49-.34-4.25.61-5.14,2.94-.65,1.7-1.2,3.45-1.62,5.22-2.1,8.77-2.72,17.77-3.87,26.68-.24,1.82-.36,3.51-1.85,4.97-5.48,5.39-11.1,10.6-17.97,14.17-3.86,2.01-7.9,3.65-12.41,3.03-2.21-.3-4.29-1.1-5.02-3.51-.75-2.49,1.69-2.94,2.95-4.03,5.16-4.44,10.94-8.29,14.17-14.57,2.56-4.95,1.71-10.66-1.86-13.83-3.13-2.78-8.28-2.6-12.94.71-5.53,3.91-8.71,9.55-10.81,15.81-2.82,8.42-8.94,13.93-16.34,17.97-5.3,2.89-9.06.62-10.14-5.25-.48-2.65-.45-5.29-.24-7.97.91-11.83,3.87-23.3,6.11-34.89.47-2.43.31-4.26-2-5.51-2.42-1.3-4.52-.59-6.37,1.14-1.67,1.56-2.2,3.65-2.56,5.83-1.5,9.03-3.04,18.06-4.59,27.08-.19,1.13-.13,2.6-.81,3.3-7.81,8.07-15.91,15.81-27.6,17.77-3.01.5-6.31.14-7.77-3.1-1.58-3.48,2.28-3.88,3.86-5.35,4.75-4.39,10.28-8.04,13.18-14.13,2.29-4.81,1.39-10.32-2.05-13.38-3.05-2.71-7.81-2.56-12.53.37-3.51,2.17-5.82,5.42-7.93,8.83-.96,1.55-1.45,3.57-2.74,4.72-9.3,8.31-18.54,16.72-29.78,22.49-4.17,2.13-8.45,3.93-13.14,4.52-8.61,1.09-12.79-2.87-11.57-11.53,2.39-16.88,11.7-28.64,27.26-35.46,1.64-.73,3.48-1.76,5.68-.56-1.24,1.72-2.34,3.15-3.33,4.65-1.22,1.88-1.12,3.79.2,5.59,1.46,2.01,3.52,2.41,5.79,1.84,6.02-1.51,10.34-12.91,6.95-18.04-3-4.55-7.36-5.46-12.26-4.75-20.95,3.04-41.92,28.19-41.12,49.21.5,12.95,8.78,20.13,21.7,18.84,7.27-.73,13.83-3.5,20.16-6.93,7.33-3.97,13.78-9.19,20.09-14.4,1.15.64.93,1.55,1.05,2.31,1.96,11.45,8.87,16.15,20.36,13.77,7.06-1.46,12.86-5.32,18.31-9.78,2.26-1.86,4.43-3.82,6.82-5.88.41.83.7,1.23.81,1.68,3.45,13.95,14.03,18.08,26.02,9.99,3.12-2.1,5.88-4.73,8.84-7.14,3.66,9.06,9,12.61,17.53,11.63,4.35-.5,8.4-2,12.22-4.12,5.86-3.27,10.86-7.63,16.24-12.94,0,4.34-.09,7.79.03,11.23.12,3.71,1.33,6.59,5.83,6.42.92-.03,1.63-.21,2.29,1.08,2.53,4.88,6.06,5.88,10.78,3.15,3.47-2.01,6.25-4.93,9.22-7.61,8.28-7.48,18.84-11.21,28.27-18.03.16,7.05-1.81,12.97-.49,18.97.6,2.71,1.44,5.39,4.9,5.29,3.18-.1,5.82-1.1,6.61-4.82.56-2.58,1.33-5.17,2.38-7.6,4.65-10.71,9.86-20.83,24.18-19.84,1.69.11,2.83-.99,3.27-2.57.52-1.83.53-3.66-1.12-5.04ZM197.54,755.86c.63-.67,1.35-1.8,2.42-.95.95.75.38,1.85-.06,2.73-1.48,3-3.9,5.1-6.85,6.76.78-3.26,2.23-6.12,4.49-8.54ZM116.54,755.74c.61-.67,1.33-1.68,2.42-.79.78.64.29,1.53.01,2.27-1.28,3.36-4.22,5.26-7,7.45.65-3.45,2.27-6.38,4.57-8.93ZM257.6,775.04c-5.39,6.29-12.89,9.67-20.16,15.18.49-14.08,8.24-22.43,17.65-29.71,2.22-1.72,3.99-.93,5.04,1.64,1.99,4.87.76,9.05-2.53,12.89Z"/><path class="d" d="M638.45,761.73c-1.46-1.38-2.89-.54-4.02.39-2.06,1.69-3.94,3.59-5.88,5.41-5.85,5.48-11.87,10.73-19.58,13.51-3.33,1.2-6.73,2.08-10.22.69-3.77-1.5-4.06-3.87-.87-6.44,4.02-3.23,8.1-6.41,11.57-10.26,2.39-2.64,4.19-5.59,4.76-9.17.62-3.96-.68-7.37-3.67-9.83-2.83-2.33-6.19-1.99-9.47-.65-5.07,2.07-8.28,6.08-10.79,10.66-1.19,2.17-2.66,3.22-5.07,3.28-4.32.09-8.65.32-12.98.43-1.29.03-3.09.13-2.84-1.81.97-7.34,1.79-14.78,7.55-21.88,1.35,4.54,1.1,7.62.65,10.73-.14.92-1.01,2.01.1,2.71,1.05.66,2.33.38,3.34-.24,3.03-1.83,4.49-4.84,5.59-8.01,1.7-4.95.4-9.4-3.48-11.96-4.25-2.8-8.23-1.85-11.94,1.17-5.76,4.7-8.72,11.07-9.34,18.18-.63,7.27-3.85,12.75-8.81,17.72-5.77,5.77-11.38,11.74-18.82,15.44-5.33,2.65-6.57,1.91-7.84-3.74-1.48-6.56.26-12.9,1.01-19.32.28-2.39,1.1-5.37-1.93-6.58-2.88-1.16-5.06.83-7.01,2.69-1.52,1.44-1.96,3.41-2.38,5.39-2.21,10.36-9.81,16.25-18.32,20.88-4.66,2.54-8.5-.11-9.21-5.52-.39-2.95-.39-5.99-.16-8.96.89-11.48,3.7-22.65,5.99-33.89.49-2.39.33-4.3-1.98-5.55-2.39-1.29-4.52-.68-6.38,1.08-1.37,1.3-2.09,2.97-2.39,4.83-.5,3.12-1.04,6.24-1.58,9.35-1.85,10.48-4.25,20.92-3.98,31.64.16,6.59,1.96,12.7,8.3,16.04,6.51,3.43,12.57,1.39,18.31-2.37,3.88-2.53,6.96-5.97,10.45-9.74.69,2.55,1.1,4.45,1.72,6.27,3.27,9.48,11,12.52,19.81,7.75,2.04-1.11,3.92-2.52,5.78-3.91,5.59-4.15,10.17-9.36,15.1-14.46-.6,9.52-1.48,18.86-4.19,27.92-.54,1.8-1.53,3.33-3.98,2.8-2.06-.46-3.58.53-4.46,2.37-.97,2.01-1.67,4.17.15,6.04,2.16,2.23,4.87,2.95,7.79,1.77,6.13-2.46,8.93-7.74,10.76-13.59,2.16-6.87,2.44-14.08,3.41-21.16q1.38-10.02,11.42-11.02,6.91-.69,6.93,6.6c.02,11.8,7.26,18.78,18.31,16.74,15.86-2.93,26.15-13.74,34.92-26.29.84-1.2,1.22-2.83-.15-4.13ZM600.78,756.89c.81-.99,1.66-3.17,3.28-1.86,1.38,1.11-.03,2.77-.82,3.91-1.57,2.29-3.44,4.35-6.56,6.06.97-3.58,2.35-5.97,4.1-8.11Z"/><path class="d" d="M463.45,761.83c-3.06-2.56-5.44,1.75-7.55,3.77-6.03,5.79-12.16,11.43-19.94,14.79-3.67,1.58-7.49,2.84-11.61,1.44-1.7-.57-2.98-1.55-3.46-3.27-.57-2.01,1.33-2.43,2.4-3.32,3.85-3.18,7.84-6.2,11.2-9.93,2.14-2.38,3.94-4.93,4.73-8.11,1.06-4.26.14-8.05-3.13-10.92-3.33-2.92-7.13-2.18-10.77-.44-2.76,1.31-5.02,3.28-6.78,5.76-1.12,1.56-2.39,2.74-4.4,2.92-4.15.37-8.3.71-12.42,1.2-2.88.35-3.54-.82-2.83-3.4,1.36-4.97,2.83-9.93,3.89-14.96.63-2.94.07-5.88-3.59-6.59-3.51-.68-5.3,1.57-6.13,4.52-1.03,3.68-1.67,7.47-2.6,11.18q-2.56,10.31-13.36,11.51c-.33.03-.67.05-1,.1-1.73.29-3.26.91-3.76,2.79-.52,1.92.02,3.72,1.43,5.01,1.04.96,2.46,1.5,4.03,2.41-1.87,1.54-3.59,3.08-5.44,4.44-1.47,1.08-3.03,2.1-4.68,2.84-2.54,1.15-5.24,2.7-7.97.64-2.59-1.96-2.67-4.86-2.18-7.75.5-2.95,1.29-5.85,1.79-8.8,1-5.79-2.43-10.17-8.23-10.73-3.59-.35-6.95.31-10.08,2.12-10.57,6.08-16.87,15.34-19.79,26.98-.83,3.28-.41,6.64.9,9.8,2.1,5.04,5.49,6.58,10.81,5.08,5.64-1.59,10.01-5.08,14.14-9.04.87-.83,1.38-2.72,3.55-1.34,10.28,6.6,15.72,6.22,25.22-1.52,2.55-2.09,4.99-4.31,8.43-7.3-.67,6.37-2.61,11.25-2.56,16.44.02,3.15.68,6.04,3.09,8.12,3.05,2.64,6.27,1.85,9.09-.44,2.66-2.16,1.65-4.34-.52-6.26-1.45-1.28-1.4-2.9-1.08-4.6.85-4.57,1.49-9.2,2.57-13.72,1.9-7.98,2.02-7.95,10.4-8.57,6.21-.45,6.17-.46,5.66,5.51-.2,2.31-.26,4.66-.16,6.98.45,10.47,7.61,16.46,18,15.11,5.21-.69,9.91-2.75,14.31-5.57,6.94-4.45,12.93-9.99,17.84-16.57,1.77-2.37,6.14-5.31,2.54-8.31ZM429.57,753.64c.28,5.95-3.57,8.01-6.76,10.48,1.15-3.86,2.94-7.28,6.76-10.48ZM349.04,762.04c-.22,8.32-6.8,17.45-14.54,20.29-2.68.98-4.44.66-3.63-2.65,2.02-8.28,5.93-15.45,13.37-20.09,3.55-2.21,4.9-1.35,4.8,2.45Z"/><path class="d" d="M652.87,768.68c1.47-12.5,4.23-22.82,5.26-33.43.36-3.72,3.33-6.5,7.41-5.76,4.37.79,4.22,4.23,3.46,7.87-2.12,10.08-5.06,19.99-5.98,30.31-.23,2.62.24,6.1-4.4,5.5-3.88-.5-6.51-1.81-5.74-4.48Z"/><path class="d" d="M528.86,726.92c4.04.41,6.15,2.12,5.79,6.14-.4,4.43-3.47,7.43-7.84,7.12-3.09-.22-6.73-.28-6.64-4.82.08-3.99,5.22-8.61,8.68-8.44Z"/><path class="d" d="M662.06,783.2c.08,5.49-3.3,9.46-7.08,9.49-3.66.02-4.91-2.43-5.01-5.55-.12-3.63,3.47-7.93,6.45-7.68,2.97.25,5.51,1.4,5.64,3.74Z"/><path class="b" d="M332.45,38.77c29.85.56,59.51,5.17,86.94,19.77,6.99,3.72,13.34,8.34,17.96,14.81,8,11.21,6.4,22.61-.5,33.61-7.29,11.62-17.58,20.36-28.68,28.14-27.27,19.12-57.57,31.8-89.17,41.65-23.4,7.3-47.32,12.27-71.79,13.66-22.13,1.26-43.96-.24-63.18-13.48-25.35-17.47-29.01-43.56-9.58-67.39,13.58-16.66,30.64-29.01,48.94-39.75,21.32-12.52,43.63-22.83,68.15-27.47,13.26-2.51,26.69-3.28,40.91-3.54Z"/><path class="c" d="M63.22,378.1c0-31.39-.38-65.88,2.68-100.29.56-6.31,1.38-12.58,3.01-18.71,1.64-6.17,4.34-8.44,10.63-8.39,9.09.07,16.85,3.71,23.24,10.03,3.89,3.85,3.18,8.78,2.41,13.67-.99,6.26-.86,6.38,4.95,4.42,8.46-2.86,16.69-2.44,24.78,1.3,7.75,3.59,14.96,8.08,21.51,13.52,11.52,9.57,14.11,22.56,13.03,36.58-2.17,28.14-9.65,54.6-24.93,78.68-4.47,7.05-9.54,11.06-18.26,9.94-4.75-.61-9.65.03-14.47-.18-3.32-.14-4.11,1.2-4.2,4.36-.61,20.81-1.39,41.62-2.2,62.43-.26,6.69-.37,6.68-6.98,6.51-10.57-.27-20.3-3.17-29.23-8.92-2.52-1.62-3.45-3.47-3.58-6.46-1.31-31.8-1.81-63.61-2.38-98.52ZM107.13,383.88c5.24-3.04,7.79-7.68,9.61-12.68,4.61-12.69,7.7-25.8,10.14-39.06,1-5.41,1.54-10.87.2-16.34-.94-3.83-3.34-6.17-7.16-6.68-3.65-.49-5.81,1.9-7.54,4.73-1.67,2.73-2.73,5.73-3.43,8.8-4.33,19.21-4.13,38.64-2.62,58.11.07.92.46,1.82.8,3.11Z"/><path class="c" d="M529.33,354.71c3.16-3.41,4.23-7.23,5.38-10.95,5.19-16.72,8.07-33.98,11.95-51.01,2-8.76,4.21-17.46,6.91-26.04,1.36-4.34,3.54-5.14,7.69-4.17,9.58,2.22,17.1,8.04,24.78,13.58,2.12,1.53.95,4.07.65,6.1-2.67,18.12-6.74,35.98-10.53,53.89-10.66,50.3-22.76,100.28-32.75,150.73-.64,3.25-1.91,4.17-5.24,4.08-12.03-.34-22.72-4.55-32.97-10.4-2.02-1.16-2.22-2.49-1.84-4.51,1.68-8.99,3.09-18.04,4.89-27.01,2.41-11.97,2.12-23.63-1.33-35.51-7.47-25.72-15.91-51.17-21.69-77.36-2.73-12.37-5.08-24.79-4.52-37.57.8-18.37,10.12-24.76,27.5-18.86,11.36,3.85,15.95,10.19,16.34,22.84.32,10.49-.79,20.98.07,31.47.57,6.92,1.74,13.71,4.72,20.7Z"/><path class="c" d="M279.2,356.61c-.49,21.59-.57,40.08-2.46,58.5-.77,7.51-.79,7.68-7.99,8.81-10,1.57-19.65,1.5-27.41-6.5-1.22-1.25-2.79-.9-4.25-.78-4.64.4-9.27,1.07-13.92,1.29-16.98.79-33.55-12.6-38.67-31.09-4.55-16.47,2.41-32.25,18.11-40.81,8.88-4.84,18.75-6.82,28.41-9.2,5.05-1.25,7.2-3.79,7.47-8.78.32-5.75-.48-11.27-2.15-16.74-1-3.27-3.08-3.61-5.79-2.3-2.17,1.05-3.66,2.88-4.82,4.93-1.97,3.47-3.79,7.03-5.8,10.48-6.15,10.54-19.08,13.52-29.3,6.93-2.01-1.3-3.19-2.68-2.9-5.21,2.05-17.99,7.86-34.41,20.76-47.58,6.32-6.45,14.12-9.21,23.27-6.91,6.78,1.7,13.69,2.94,20.36,4.97,17.69,5.37,24.7,14.18,26.47,32.65,1.61,16.8.55,33.63.6,47.33ZM237.82,376.97c.05-.78-.05-2.81.32-4.75.69-3.55-.91-3.99-3.82-3.32-4.38,1-8.81,1.9-12.74,4.12-4.02,2.27-9.17,4.63-8.2,10.05.98,5.49,6.69,5.89,11.24,6.44,12.65,1.52,12.66,1.4,13.19-12.54Z"/><path class="c" d="M408.08,363.35c0-9.65-.13-19.31.07-28.96.08-3.67-1.07-5.6-4.65-6.98-12.14-4.69-14.2-8.08-13.79-20.87.23-7.17,2.14-9.65,9.09-11.88q9.51-3.04,10.02-12.8c.92-16.62,1.95-33.24,2.75-49.87.14-2.83.99-3.94,3.84-4.58,13.93-3.13,25.95.6,36.81,9.4,1.77,1.44,1.63,3.08,1.56,4.89-.5,12.98-.83,25.96-1.63,38.92-.22,3.53.6,5.02,4.03,5.92,13.88,3.63,15.75,6.3,15.38,20.81-.38,14.95-.36,15.12-14.97,16.55-3.95.39-4.44,2.28-4.52,5.43-.59,21.15-.26,42.28,1.04,63.4.38,6.17.23,12.34-1.38,18.35-2.28,8.52-8.02,12.33-16.8,11.21-6.69-.85-12.94-3.22-18.75-6.51-5.14-2.91-6.39-8.35-7.37-13.59-2.19-11.69-1.96-23.53-1.54-35.35.04-1.16.14-2.33.21-3.49.21,0,.41,0,.62,0Z"/><path class="c" d="M306.68,346.45c1.08-23.25,1.23-39.07.06-54.86-.25-3.3.8-4.38,3.9-5.42,7.5-2.52,14.79-3.95,22.22-.12,2.18,1.12,3.22.36,4.13-1.77,1.76-4.13,3.91-8.09,5.67-12.22.91-2.15,2.3-3.08,4.54-3.16,4.66-.17,9.31-.51,13.94.4,13.69,2.67,21.51,11.8,22.66,26.53.8,10.25-.6,20.24-3.45,30.09-1,3.47-1.9,6.51-6.47,6.96-5.15.51-10.06,1.08-13.59-3.73-1.37-1.87-2.29-4.12-3.84-5.82-1.85-2.03-3.75-2.96-4.68,1.1-1.12,4.88-2.2,9.72-2.09,14.77.41,18.31.84,36.62,1.15,54.93.13,7.99,0,15.98-1.61,23.87-.62,3.02-2.05,4.58-5.21,4.99-3.64.47-7.25,1-10.93.93-10.94-.2-18.23-5.2-22.17-15.45-3.03-7.87-4.05-16.16-4.15-24.5-.19-14.98-.05-29.97-.05-37.51Z"/><path class="c" d="M437.43,511.45c-13,0-25.99.08-38.99-.06-3.01-.03-4.06.58-3.7,3.86,2.67,24.61,29.88,38.65,51.54,26.49,5.58-3.14,9.49-7.85,12.14-13.55,1.17-2.5,2.35-3.5,5.28-2.91,4.07.82,8.25,1.19,12.4,1.39,3.48.17,4.29,1.18,2.88,4.55-5.67,13.58-15.76,22.18-29.71,26.04-13.94,3.86-28.09,3.83-41.89-.68-19.13-6.26-29.94-19.77-32.51-39.68-1.09-8.46-.81-16.98,1.28-25.32,5.09-20.32,21.56-34.37,43.12-36.67,8.66-.92,17.29-.8,25.79,1.55,23.33,6.46,36.94,25.38,35.88,52.21-.13,3.22-2.06,2.78-4.03,2.78-13.16,0-26.33,0-39.49,0ZM427.75,497.43c9.31,0,18.63-.22,27.93.1,4.22.15,4.61-1.37,3.88-4.91-3.17-15.44-14.82-24.34-31.9-24.14-16.37.2-28.92,10.17-31.67,24.95-.57,3.07.04,4.12,3.33,4.06,9.47-.19,18.95-.07,28.43-.07Z"/><path class="c" d="M179.5,454.32c8.07.06,15.97,1.09,23.47,4.19,17.46,7.23,27.78,19.98,30.13,38.99.91,7.36.57,14.65-.48,21.91-2.41,16.75-11.7,28.36-27.1,35.05-15.12,6.56-30.73,7.16-46.4,2.47-20.61-6.16-32.53-21.95-34.04-44.42-.44-6.51-.16-13,1.15-19.4,4.47-21.68,21.4-36.12,44.79-38.28,2.82-.26,5.65-.34,8.48-.51ZM213.68,506.7c-.3-3.18-.43-6.52-.94-9.8-2.63-16.94-15.28-28.06-32.19-28.41-18.15-.38-31.08,9.65-34.41,26.88-1.3,6.74-1.35,13.52-.47,20.38,2.3,17.84,14.87,29.62,32.31,29.97,18.8.38,31.89-10.48,34.74-28.92.51-3.28.64-6.62.97-10.1Z"/><path class="c" d="M274.4,469.68c.73-.39,1.24-.5,1.51-.82,14.75-17.57,42.56-16.77,57.22-10.14,9.81,4.43,15.31,11.98,16.91,22.47,1.16,7.61.73,15.29.75,22.95.05,16.49-.05,32.98.08,49.47.02,2.94-.58,4.24-3.82,4.01-5.12-.35-11.84,1.61-14.97-.96-3.28-2.7-.96-9.68-1.01-14.77-.13-14.99-.03-29.98-.07-44.97,0-2.99-.06-6.01-.42-8.97-1.28-10.42-7.13-16.53-17.52-18.2-5.12-.82-10.29-.71-15.38.56-13.15,3.26-20.1,11.01-20.97,24.52-1.22,18.96-.47,37.96-.37,56.95.03,4.93-1.33,6.48-6.08,5.85-4.4-.59-10.32,1.87-12.88-1.02-2.19-2.47-.78-8.23-.78-12.53-.03-27.48.05-54.97-.1-82.45-.02-3.78.76-5.51,4.86-4.96,4.08.55,9.59-1.78,11.94.95,2.1,2.44.85,7.76,1.1,12.09Z"/><path class="b" d="M84.82,207.69c.2-14.17,5.01-26.7,14.23-37.4,6.61-7.67,18.54-10.1,28.96-6.4,10.38,3.69,17.18,13.05,17.82,24.26,1.33,23.05-18.89,41.23-33.7,45.22-13.41,3.61-25.93-5.64-27.29-19.7-.19-1.98-.03-3.99-.03-5.99Z"/><path class="d" d="M107.13,383.88c-.34-1.29-.73-2.19-.8-3.11-1.51-19.48-1.71-38.91,2.62-58.11.69-3.08,1.75-6.08,3.43-8.8,1.73-2.83,3.89-5.22,7.54-4.73,3.82.51,6.22,2.85,7.16,6.68,1.34,5.48.8,10.93-.2,16.34-2.44,13.26-5.53,26.37-10.14,39.06-1.82,5-4.37,9.64-9.61,12.68Z"/><path class="d" d="M237.82,376.97c-.53,13.94-.55,14.06-13.19,12.54-4.55-.55-10.26-.96-11.24-6.44-.97-5.42,4.18-7.78,8.2-10.05,3.94-2.22,8.36-3.13,12.74-4.12,2.91-.66,4.51-.22,3.82,3.32-.38,1.94-.28,3.97-.32,4.75Z"/><path class="d" d="M427.75,497.43c-9.48,0-18.96-.12-28.43.07-3.3.07-3.91-.99-3.33-4.06,2.76-14.79,15.3-24.76,31.67-24.95,17.08-.2,28.73,8.69,31.9,24.14.73,3.54.34,5.06-3.88,4.91-9.3-.32-18.62-.1-27.93-.1Z"/><path class="d" d="M213.68,506.7c-.32,3.48-.46,6.82-.97,10.1-2.85,18.44-15.94,29.3-34.74,28.92-17.44-.35-30-12.13-32.31-29.97-.89-6.86-.83-13.64.47-20.38,3.33-17.23,16.26-27.25,34.41-26.88,16.91.35,29.57,11.47,32.19,28.41.51,3.28.65,6.62.94,9.8Z"/></svg>